<svg width="65" height="66" viewBox="0 0 65 66" fill="none" xmlns="http://www.w3.org/2000/svg">
<rect width="65" height="66" rx="32.5" fill="url(#paint0_radial_8_222)"/>
<path d="M32.7019 29.7711C32.7019 27.0826 33.6451 24.6097 35.2255 22.6514C35.4373 22.3891 35.249 22.0053 34.9072 22.0009C34.8575 22.0003 34.8076 22 34.7576 22C28.2829 22 23.0305 27.1189 23.0001 33.4448C22.9698 39.7561 28.1897 44.9389 34.6422 44.9995C37.8347 45.0295 40.7372 43.8147 42.8732 41.8212C43.1187 41.592 42.9876 41.186 42.6522 41.1354C37.0167 40.285 32.7019 35.5212 32.7019 29.7711Z" fill="url(#paint1_linear_8_222)"/>
<defs>
<radialGradient id="paint0_radial_8_222" cx="0" cy="0" r="1" gradientUnits="userSpaceOnUse" gradientTransform="translate(32.5 33) scale(32.5 33)">
<stop stop-color="#423F2D" stop-opacity="0.49"/>
<stop offset="1" stop-color="#131216"/>
</radialGradient>
<linearGradient id="paint1_linear_8_222" x1="66.5544" y1="822.26" x2="2010.46" y2="1877.94" gradientUnits="userSpaceOnUse">
<stop stop-color="#FFEA8A"/>
<stop offset="0.542186" stop-color="#FFEA8A"/>
<stop offset="0.744989" stop-color="#FFEA8A"/>
<stop offset="1" stop-color="#FFEA8A"/>
</linearGradient>
</defs>
</svg>
